# xmcd
#
# Track frame offsets:
# 150
# 12561
# 19750
# 31443
# 47659
# 55439
# 67995
# 78005
# 81464
# 86413
# 99799
# 113176
# 118729
# 125449
# 137559
# 147117
# 158879
# 171249
# 180268
# 190622
# 200554
# 210969
# 222128
# 230763
# 238053
# 251284
# 259186
# 266889
# 274281
# 284416
# 290540
#
# Disc length: 4048 seconds
#
#
# Revision: 0
# Processed by: cddbd v1.5.2PL0 Copyright (c) Steve Scherf et al.
# Submitted via: FreeRIP 2.96 
#
DISCID=c00fce1f
DTITLE=Krieg der Sterne - Episode II - Angriff der Klonkrieger 
DYEAR=2005
DGENRE=Hörspiel
TTITLE0=01 Angriff der Klonkrieger
TTITLE1=02 Angriff der Klonkrieger
TTITLE2=03 Angriff der Klonkrieger
TTITLE3=04 Angriff der Klonkrieger
TTITLE4=05 Angriff der Klonkrieger
TTITLE5=06 Angriff der Klonkrieger
TTITLE6=07 Angriff der Klonkrieger
TTITLE7=08 Angriff der Klonkrieger
TTITLE8=09 Angriff der Klonkrieger
TTITLE9=10 Angriff der Klonkrieger
TTITLE10=11 Angriff der Klonkrieger
TTITLE11=12 Angriff der Klonkrieger
TTITLE12=13 Angriff der Klonkrieger
TTITLE13=14 Angriff der Klonkrieger
TTITLE14=15 Angriff der Klonkrieger
TTITLE15=16 Angriff der Klonkrieger
TTITLE16=17 Angriff der Klonkrieger
TTITLE17=18 Angriff der Klonkrieger
TTITLE18=19 Angriff der Klonkrieger
TTITLE19=20 Angriff der Klonkrieger
TTITLE20=21 Angriff der Klonkrieger
TTITLE21=22 Angriff der Klonkrieger
TTITLE22=23 Angriff der Klonkrieger
TTITLE23=24 Angriff der Klonkrieger
TTITLE24=25 Angriff der Klonkrieger
TTITLE25=26 Angriff der Klonkrieger
TTITLE26=27 Angriff der Klonkrieger
TTITLE27=28 Angriff der Klonkrieger
TTITLE28=29 Angriff der Klonkrieger
TTITLE29=30 Angriff der Klonkrieger
TTITLE30=31 Angriff der Klonkrieger
EXTD=Hörspiel zum Film
EXTT0=
EXTT1=
EXTT2=
EXTT3=
EXTT4=
EXTT5=
EXTT6=
EXTT7=
EXTT8=
EXTT9=
EXTT10=
EXTT11=
EXTT12=
EXTT13=
EXTT14=
EXTT15=
EXTT16=
EXTT17=
EXTT18=
EXTT19=
EXTT20=
EXTT21=
EXTT22=
EXTT23=
EXTT24=
EXTT25=
EXTT26=
EXTT27=
EXTT28=
EXTT29=
EXTT30=
PLAYORDER=
